<svg width="15" height="15" viewBox="0 0 15 15" fill="none" xmlns="http://www.w3.org/2000/svg">
<path d="M14.0762 2.3457L9.6875 0.527344L5.32617 2.25L0.923828 0.527344C0.905599 0.518229 0.88737 0.513672 0.869141 0.513672C0.850911 0.513672 0.832682 0.513672 0.814453 0.513672C0.723307 0.513672 0.648112 0.543294 0.588867 0.602539C0.529622 0.661784 0.5 0.741536 0.5 0.841797V12.1895C0.5 12.3171 0.541016 12.4333 0.623047 12.5381C0.705078 12.6429 0.805339 12.7135 0.923828 12.75L5.32617 14.4863L9.6875 12.7227L14.0762 14.4453C14.0944 14.4453 14.1126 14.4476 14.1309 14.4521C14.1491 14.4567 14.1673 14.459 14.1855 14.459C14.2767 14.459 14.3519 14.4271 14.4111 14.3633C14.4704 14.2995 14.5 14.2174 14.5 14.1172V2.90625C14.5 2.77865 14.459 2.66243 14.377 2.55762C14.2949 2.4528 14.1947 2.38216 14.0762 2.3457ZM5.75 2.97461L9.25 1.60742V12.0117L5.75 13.4062V2.97461ZM1.375 1.68945L4.875 2.97461V13.3926L1.375 11.9707V1.68945ZM13.625 13.3242L10.125 12.0117V1.62109L13.625 3.125V13.3242Z" fill="#C19B76"/>
</svg>
