<svg width="15" height="15" viewBox="0 0 15 15" fill="none" xmlns="http://www.w3.org/2000/svg">
<path d="M14.4863 6.9668C14.4772 6.89388 14.459 6.82096 14.4316 6.74805C14.4043 6.67513 14.3678 6.61133 14.3223 6.55664L14.3086 6.54297C14.2904 6.51562 14.2676 6.48828 14.2402 6.46094C14.2129 6.43359 14.1855 6.40625 14.1582 6.37891L11.875 4.08203V2.67383C11.875 2.55534 11.8317 2.4528 11.7451 2.36621C11.6585 2.27962 11.556 2.23633 11.4375 2.23633H10.0566L8.45703 0.869141C8.21094 0.623047 7.90104 0.5 7.52734 0.5C7.15365 0.5 6.84375 0.623047 6.59766 0.869141L5.01172 2.23633H3.5625C3.44401 2.23633 3.34147 2.27962 3.25488 2.36621C3.16829 2.4528 3.125 2.55534 3.125 2.67383V4.10938L0.896484 6.33789C0.777995 6.41992 0.682292 6.52474 0.609375 6.65234C0.536458 6.77995 0.5 6.92122 0.5 7.07617V13.625C0.5 13.8711 0.586589 14.0785 0.759766 14.2471C0.932943 14.4157 1.13802 14.5 1.375 14.5H13.625C13.862 14.5 14.0671 14.4157 14.2402 14.2471C14.4134 14.0785 14.5 13.8711 14.5 13.625V7.08984C14.5 7.07161 14.5 7.05111 14.5 7.02832C14.5 7.00553 14.4954 6.98503 14.4863 6.9668ZM4.17773 10.4258L1.375 13.0234V7.95117L4.17773 10.4258ZM5.02539 10.8359C5.05273 10.8177 5.0778 10.7995 5.10059 10.7812C5.12337 10.763 5.14844 10.7402 5.17578 10.7129C5.1849 10.7038 5.19401 10.6924 5.20312 10.6787C5.21224 10.665 5.22135 10.6491 5.23047 10.6309L7.11719 8.88086C7.16276 8.8444 7.21517 8.81478 7.27441 8.79199C7.33366 8.76921 7.39518 8.75781 7.45898 8.75781C7.52279 8.75781 7.58431 8.76921 7.64355 8.79199C7.7028 8.81478 7.75065 8.83984 7.78711 8.86719L13.0371 13.625H2.00391L5.02539 10.8359ZM10.8633 10.4805L13.625 8.0332V12.9688L10.8633 10.4805ZM12.7773 6.20117H12.7637L13.5156 6.95312L11.875 8.41602V5.29883L12.7773 6.20117ZM7.21289 1.48438C7.25846 1.44792 7.30859 1.41829 7.36328 1.39551C7.41797 1.37272 7.47266 1.36133 7.52734 1.36133C7.58203 1.36133 7.63672 1.37272 7.69141 1.39551C7.74609 1.41829 7.79622 1.44792 7.8418 1.48438L8.7168 2.23633H6.33789L7.21289 1.48438ZM11 3.11133V9.19531L10.2207 9.89258L8.34766 8.19727C8.09245 7.99674 7.7985 7.89421 7.46582 7.88965C7.13314 7.88509 6.83008 7.99219 6.55664 8.21094L4.82031 9.82422L4 9.09961V3.11133H11ZM1.92188 6.55664L3.125 5.35352V8.32031L1.52539 6.91211L1.89453 6.55664H1.92188Z" fill="#C19B76"/>
</svg>
