<svg width="15" height="15" viewBox="0 0 15 15" fill="none" xmlns="http://www.w3.org/2000/svg">
<path d="M13.5293 3.98633H11.875V0.5H3.125V3.98633H1.4707C1.20638 3.98633 0.978516 4.08203 0.787109 4.27344C0.595703 4.46484 0.5 4.69271 0.5 4.95703V10.8906C0.5 11.1641 0.595703 11.3965 0.787109 11.5879C0.978516 11.7793 1.20638 11.875 1.4707 11.875H3.125V14.5H11.875V11.875H13.5293C13.7936 11.875 14.0215 11.7793 14.2129 11.5879C14.4043 11.3965 14.5 11.1641 14.5 10.8906V4.95703C14.5 4.69271 14.4043 4.46484 14.2129 4.27344C14.0215 4.08203 13.7936 3.98633 13.5293 3.98633ZM4 1.36133H11V3.98633H4V1.36133ZM11 13.625H4V8.79883H11V13.625ZM13.625 10.8906C13.625 10.918 13.6159 10.943 13.5977 10.9658C13.5794 10.9886 13.5566 11 13.5293 11H11.875V7.92383H3.125V10.9863H1.4707C1.44336 10.9863 1.42057 10.9772 1.40234 10.959C1.38411 10.9408 1.375 10.918 1.375 10.8906V4.95703C1.375 4.92969 1.38411 4.9069 1.40234 4.88867C1.42057 4.87044 1.44336 4.86133 1.4707 4.86133H13.5293C13.5566 4.86133 13.5794 4.87044 13.5977 4.88867C13.6159 4.9069 13.625 4.92969 13.625 4.95703V10.8906ZM11.875 5.73633H11.4375C11.319 5.73633 11.2165 5.77962 11.1299 5.86621C11.0433 5.9528 11 6.05534 11 6.17383C11 6.30143 11.0433 6.40625 11.1299 6.48828C11.2165 6.57031 11.319 6.61133 11.4375 6.61133H11.875C11.9935 6.61133 12.096 6.57031 12.1826 6.48828C12.2692 6.40625 12.3125 6.30143 12.3125 6.17383C12.3125 6.05534 12.2692 5.9528 12.1826 5.86621C12.096 5.77962 11.9935 5.73633 11.875 5.73633Z" fill="#C19B76"/>
</svg>
