<svg width="15" height="15" viewBox="0 0 15 15" fill="none" xmlns="http://www.w3.org/2000/svg">
<path d="M4.08203 1.00586C4.33724 1.36133 4.61751 1.76693 4.92285 2.22266C5.22819 2.67839 5.55859 3.18425 5.91406 3.74023C6.00521 3.88607 6.04395 4.05013 6.03027 4.23242C6.0166 4.41471 5.95052 4.61068 5.83203 4.82031C5.78646 4.91146 5.70898 5.05729 5.59961 5.25781C5.49023 5.45833 5.34896 5.7181 5.17578 6.03711C5.36719 6.31055 5.611 6.61589 5.90723 6.95312C6.20345 7.29036 6.54753 7.65495 6.93945 8.04688C7.34049 8.44792 7.70736 8.79655 8.04004 9.09277C8.37272 9.389 8.67122 9.63281 8.93555 9.82422C9.24544 9.64193 9.50293 9.49381 9.70801 9.37988C9.91309 9.26595 10.0612 9.1862 10.1523 9.14062C10.2617 9.07682 10.3734 9.02897 10.4873 8.99707C10.6012 8.96517 10.7083 8.94922 10.8086 8.94922C10.8906 8.94922 10.9658 8.95833 11.0342 8.97656C11.1025 8.99479 11.1686 9.02214 11.2324 9.05859C11.6426 9.30469 12.0755 9.5804 12.5312 9.88574C12.987 10.1911 13.4746 10.526 13.9941 10.8906C14.0853 10.9544 14.1582 11.0365 14.2129 11.1367C14.2676 11.237 14.304 11.3464 14.3223 11.4648C14.3314 11.5924 14.3177 11.7223 14.2812 11.8545C14.2448 11.9867 14.181 12.1211 14.0898 12.2578C14.0534 12.3216 13.9987 12.3991 13.9258 12.4902C13.8529 12.5814 13.7663 12.6862 13.666 12.8047C13.5749 12.9232 13.4564 13.0576 13.3105 13.208C13.1647 13.3584 12.9915 13.5247 12.791 13.707C12.5996 13.8893 12.4242 14.026 12.2646 14.1172C12.1051 14.2083 11.9661 14.2539 11.8477 14.2539H11.8203C11.3464 14.2357 10.8496 14.1331 10.3301 13.9463C9.81055 13.7594 9.26367 13.4928 8.68945 13.1465C8.11523 12.8001 7.51367 12.3672 6.88477 11.8477C6.25586 11.3281 5.59961 10.7311 4.91602 10.0566C4.23242 9.37305 3.63314 8.7168 3.11816 8.08789C2.60319 7.45898 2.17025 6.85742 1.81934 6.2832C1.46842 5.70898 1.20182 5.15983 1.01953 4.63574C0.83724 4.11165 0.736979 3.61719 0.71875 3.15234C0.71875 3.02474 0.764323 2.88118 0.855469 2.72168C0.946615 2.56217 1.08333 2.38216 1.26562 2.18164C1.44792 1.98112 1.61198 1.81022 1.75781 1.66895C1.90365 1.52767 2.03581 1.41146 2.1543 1.32031C2.26367 1.23828 2.36849 1.16081 2.46875 1.08789C2.56901 1.01497 2.6556 0.951172 2.72852 0.896484C2.82878 0.823567 2.93359 0.771159 3.04297 0.739258C3.15234 0.707356 3.27083 0.691406 3.39844 0.691406C3.54427 0.691406 3.67415 0.716472 3.78809 0.766602C3.90202 0.816731 4 0.896484 4.08203 1.00586ZM3.20703 1.56641C3.02474 1.69401 2.84701 1.83301 2.67383 1.9834C2.50065 2.13379 2.33203 2.29102 2.16797 2.45508C2.00391 2.61914 1.87402 2.76042 1.77832 2.87891C1.68262 2.9974 1.62109 3.09766 1.59375 3.17969C1.61198 3.58984 1.70768 4.02734 1.88086 4.49219C2.05404 4.95703 2.30469 5.4515 2.63281 5.97559C2.96094 6.49967 3.36654 7.05111 3.84961 7.62988C4.33268 8.20866 4.89323 8.81706 5.53125 9.45508C6.16927 10.0931 6.77767 10.6536 7.35645 11.1367C7.93522 11.6198 8.48665 12.0254 9.01074 12.3535C9.53483 12.6816 10.0316 12.9323 10.501 13.1055C10.9704 13.2786 11.4102 13.3789 11.8203 13.4062C11.8841 13.3789 11.9753 13.3151 12.0938 13.2148C12.2122 13.1146 12.3535 12.9824 12.5176 12.8184C12.6816 12.6543 12.8366 12.4834 12.9824 12.3057C13.1283 12.1279 13.2695 11.9479 13.4062 11.7656C13.4336 11.7292 13.4518 11.695 13.4609 11.6631C13.4701 11.6312 13.4701 11.6016 13.4609 11.5742C12.9323 11.2005 12.4469 10.8678 12.0049 10.5762C11.5628 10.2845 11.1641 10.0247 10.8086 9.79688C10.7721 9.79688 10.7311 9.80371 10.6855 9.81738C10.64 9.83105 10.5898 9.85156 10.5352 9.87891C10.4622 9.92448 10.3255 10.002 10.125 10.1113C9.92448 10.2207 9.66471 10.362 9.3457 10.5352L8.89453 10.8086L8.44336 10.5078C8.15169 10.3073 7.8304 10.0498 7.47949 9.73535C7.12858 9.4209 6.74349 9.05404 6.32422 8.63477C5.91406 8.21549 5.55404 7.8304 5.24414 7.47949C4.93424 7.12858 4.67904 6.80729 4.47852 6.51562L4.15039 6.0918L4.42383 5.61328C4.59701 5.29427 4.73828 5.03678 4.84766 4.84082C4.95703 4.64486 5.03451 4.50586 5.08008 4.42383C5.10742 4.36914 5.12793 4.31901 5.1416 4.27344C5.15527 4.22786 5.16211 4.18685 5.16211 4.15039C4.8431 3.64909 4.54004 3.17969 4.25293 2.74219C3.96582 2.30469 3.6901 1.89453 3.42578 1.51172H3.39844C3.36198 1.51172 3.3278 1.51628 3.2959 1.52539C3.264 1.5345 3.23438 1.54818 3.20703 1.56641Z" fill="#C19B76"/>
</svg>
