<svg width="60" height="68" viewBox="0 0 60 68" fill="none" xmlns="http://www.w3.org/2000/svg">
<g clip-path="url(#clip0_1_63)">
<path d="M57.8906 29.5898C59.2969 29.9805 60 30.8789 60 32.2852C60 33.0664 59.7266 33.7305 59.1797 34.2773C58.6328 34.8242 58.0078 35.0977 57.3047 35.0977H45.5859C46.2891 36.5039 46.0938 37.7539 45 38.8477L34.3359 50.5664C33.7891 51.0352 33.2031 51.3477 32.5781 51.5039L11.7188 56.6602V59.9414C11.7188 60.4102 11.4453 60.6836 10.8984 60.7617L0.9375 61.9336C0.703125 61.9336 0.507812 61.8555 0.351562 61.6992C0.117188 61.543 0 61.3477 0 61.1133V45.8789C0 45.2539 0.3125 44.9414 0.9375 44.9414H10.4297L18.0469 35.0977H4.80469C4.02344 35.0977 3.37891 34.8242 2.87109 34.2773C2.36328 33.7305 2.10938 33.0664 2.10938 32.2852C2.10938 30.8789 2.8125 29.9805 4.21875 29.5898C5.07812 27.0898 6.36719 24.6289 8.08594 22.207C8.24219 21.8945 8.49609 21.7773 8.84766 21.8555C9.19922 21.9336 9.43359 22.1094 9.55078 22.3828C9.66797 22.6562 9.64844 22.9492 9.49219 23.2617C8.08594 25.293 6.95312 27.4023 6.09375 29.5898H56.0156C54.8438 26.543 53.2031 23.7695 51.0938 21.2695C48.8281 18.5352 46.2109 16.3867 43.2422 14.8242C38.3984 12.2461 33.0078 11.3867 27.0703 12.2461C20.9766 13.0273 15.8203 15.8008 11.6016 20.5664C11.3672 20.8008 11.0938 20.8789 10.7812 20.8008C10.4688 20.7227 10.2539 20.5469 10.1367 20.2734C10.0195 20 10.0781 19.707 10.3125 19.3945C12.7344 16.6602 15.4688 14.5508 18.5156 13.0664C20.8594 11.8945 23.3984 11.0742 26.1328 10.6055C26.2109 9.35547 26.7188 8.30078 27.6562 7.44141C28.5938 6.58203 29.7266 6.15234 31.0547 6.15234C31.9141 6.15234 32.6953 6.34766 33.3984 6.73828C34.1016 7.12891 34.6875 7.65625 35.1562 8.32031C35.625 8.98438 35.8984 9.74609 35.9766 10.6055C38.8672 11.0742 41.6016 11.9727 44.1797 13.3008C47.3047 15.0195 50.0781 17.3242 52.5 20.2148C54.9219 23.1836 56.7188 26.3086 57.8906 29.5898ZM33.8672 10.3711C33.8672 10.3711 33.9062 10.3711 33.9844 10.3711C34.0625 10.3711 34.1016 10.3711 34.1016 10.3711C33.9453 9.66797 33.5742 9.08203 32.9883 8.61328C32.4023 8.14453 31.7383 7.91016 30.9961 7.91016C30.2539 7.91016 29.5898 8.14453 29.0039 8.61328C28.418 9.08203 28.0469 9.66797 27.8906 10.3711C27.8906 10.3711 28.0469 10.3711 28.3594 10.3711C28.9844 10.293 29.6094 10.2539 30.2344 10.2539C31.4062 10.1758 32.6172 10.2148 33.8672 10.3711ZM9.96094 59.1211V46.6992H1.75781V60.0586L9.96094 59.1211ZM43.7109 37.5586C44.4141 36.8555 44.4141 36.1523 43.7109 35.4492C43.0078 34.7461 42.3047 34.7461 41.6016 35.4492L31.5234 45.5273C31.2891 45.6836 31.0547 45.7617 30.8203 45.7617H18.3984C18.0078 45.7617 17.7344 45.6055 17.5781 45.293C17.4219 44.9805 17.4219 44.707 17.5781 44.4727C20.2344 40.4102 21.7969 38.0469 22.2656 37.3828C22.7344 36.7188 22.6562 36.0742 22.0312 35.4492C21.7969 35.2148 21.4648 35.0781 21.0352 35.0391C20.6055 35 20.2734 35.1367 20.0391 35.4492L11.7188 46.1133V54.7852L32.2266 49.7461C32.5391 49.668 32.8125 49.5508 33.0469 49.3945L43.7109 37.6758V37.5586ZM23.9062 35.0977C24.5312 36.1914 24.4531 37.2852 23.6719 38.3789L20.0391 44.0039L29.0625 35.0977H23.9062ZM25.1953 44.0039L33.3984 35.918C33.1641 35.3711 32.7344 35.0977 32.1094 35.0977C31.7188 35.0977 31.3672 35.2148 31.0547 35.4492L22.5 44.0039H25.1953ZM36.3281 35.4492L27.7734 44.0039H30.4688L38.6719 35.918C38.4375 35.3711 38.0078 35.0977 37.3828 35.0977C36.9922 35.0977 36.6406 35.2148 36.3281 35.4492ZM57.3047 33.3398C57.9297 33.3398 58.2422 33.0078 58.2422 32.3438C58.2422 31.6797 57.9297 31.3477 57.3047 31.3477H4.80469C4.17969 31.3477 3.86719 31.6797 3.86719 32.3438C3.86719 33.0078 4.17969 33.3398 4.80469 33.3398H57.3047Z" fill="black"/>
</g>
<defs>
<clipPath id="clip0_1_63">
<rect width="60" height="67.5" fill="white"/>
</clipPath>
</defs>
</svg>
