<svg width="60" height="68" viewBox="0 0 60 68" fill="none" xmlns="http://www.w3.org/2000/svg">
<g clip-path="url(#clip0_1_77)">
<path d="M59.6484 24.9023C60.1953 25.4492 60.1953 25.957 59.6484 26.4258C59.4922 26.6602 59.2578 26.7773 58.9453 26.7773C58.6328 26.7773 58.3594 26.6602 58.125 26.4258C50.3906 18.6914 41.0156 14.8242 30 14.8242C18.9844 14.8242 9.60937 18.7305 1.87499 26.543C1.32812 27.0117 0.800774 26.9922 0.292962 26.4844C-0.214851 25.9766 -0.195319 25.4492 0.351556 24.9023C4.25781 20.9961 8.76952 17.9883 13.8867 15.8789C19.0039 13.7695 24.375 12.7148 30 12.7148C33.75 12.7148 37.3828 13.1836 40.8984 14.1211C44.4141 15.0586 47.7734 16.4453 50.9766 18.2812C54.1797 20.1172 57.0703 22.3242 59.6484 24.9023ZM6.79687 31.3477C13.2031 24.9414 20.9375 21.7383 30 21.7383C39.0625 21.7383 46.7969 24.9414 53.2031 31.3477C53.75 31.8945 53.7695 32.4219 53.2617 32.9297C52.7539 33.4375 52.2266 33.418 51.6797 32.8711C45.7422 26.9336 38.5156 23.9648 30 23.9648C21.4844 23.9648 14.2578 26.9336 8.32031 32.8711C8.08593 33.1055 7.81249 33.2227 7.49999 33.2227C7.18749 33.2227 6.95312 33.1055 6.79687 32.8711C6.24999 32.4023 6.24999 31.8945 6.79687 31.3477ZM13.125 37.793C17.8125 33.1836 23.4375 30.8789 30 30.8789C36.5625 30.8789 42.1875 33.1836 46.875 37.793C47.3437 38.3398 47.3437 38.8477 46.875 39.3164C46.6406 39.5508 46.3672 39.668 46.0547 39.668C45.7422 39.668 45.4687 39.5508 45.2344 39.3164C41.0156 35.0977 35.9375 32.9883 30 32.9883C24.0625 32.9883 18.9844 35.0977 14.7656 39.3164C14.2187 39.8633 13.6914 39.8828 13.1836 39.375C12.6758 38.8672 12.6562 38.3398 13.125 37.793ZM24.9609 43.1836C24.9609 43.1836 25.3125 42.832 26.0156 42.1289C26.7187 41.4258 28.0469 41.0742 30 41.0742C31.9531 41.0742 33.6328 41.7773 35.0391 43.1836C36.4453 44.5898 37.1484 46.2891 37.1484 48.2812C37.1484 50.2734 36.4453 51.9531 35.0391 53.3203C33.6328 54.6875 31.9531 55.3711 30 55.3711C28.0469 55.3711 26.3672 54.6875 24.9609 53.3203C23.5547 51.9531 22.8516 50.2734 22.8516 48.2812C22.8516 46.2891 23.5547 44.5898 24.9609 43.1836ZM26.4844 51.7969C26.4844 51.7969 26.7187 52.041 27.1875 52.5293C27.6562 53.0176 28.5937 53.2617 30 53.2617C31.4062 53.2617 32.5781 52.7734 33.5156 51.7969C34.4531 50.8203 34.9219 49.6484 34.9219 48.2812C34.9219 46.9141 34.4531 45.7422 33.5156 44.7656C32.5781 43.7891 31.4062 43.3008 30 43.3008C28.5937 43.3008 27.4219 43.7891 26.4844 44.7656C25.5469 45.7422 25.0781 46.9141 25.0781 48.2812C25.0781 49.6484 25.5469 50.8203 26.4844 51.7969Z" fill="black"/>
</g>
<defs>
<clipPath id="clip0_1_77">
<rect width="60" height="67.5" fill="white"/>
</clipPath>
</defs>
</svg>
