<svg width="13" height="17" viewBox="0 0 13 17" fill="none" xmlns="http://www.w3.org/2000/svg">
<path d="M3.07286 11.2858C3.07286 11.2858 3.15619 11.3691 3.32286 11.5358C3.48953 11.7025 3.57286 12.0239 3.57286 12.5001C3.57286 12.9763 3.40619 13.381 3.07286 13.7144C2.73953 14.0477 2.33476 14.2144 1.85857 14.2144C1.38238 14.2144 0.97762 14.0477 0.644287 13.7144C0.310954 13.381 0.144287 12.9763 0.144287 12.5001C0.144287 12.0239 0.310954 11.6191 0.644287 11.2858C0.97762 10.9525 1.38238 10.7858 1.85857 10.7858C2.33476 10.7858 2.73953 10.9525 3.07286 11.2858ZM8.14429 13.5983C8.15619 13.765 8.1056 13.9078 7.9925 14.0269C7.88536 14.1519 7.74548 14.2144 7.57286 14.2144H6.3675C6.21869 14.2144 6.09072 14.1652 5.98357 14.067C5.87643 13.9688 5.81691 13.8453 5.805 13.6965C5.67405 12.3334 5.12494 11.1682 4.15768 10.201C3.19042 9.2337 2.02524 8.68459 0.662144 8.55364C0.513335 8.54174 0.389823 8.48221 0.291609 8.37507C0.193394 8.26793 0.144287 8.13995 0.144287 7.99114V6.78578C0.144287 6.61316 0.206787 6.47328 0.331787 6.36614C0.432978 6.26495 0.560954 6.21436 0.715716 6.21436H0.760359C1.71274 6.29174 2.62345 6.53132 3.4925 6.9331C4.36155 7.33489 5.13238 7.87507 5.805 8.55364C6.48357 9.22626 7.02375 9.99709 7.42554 10.8661C7.82732 11.7352 8.06691 12.6459 8.14429 13.5983ZM12.7157 13.6161C12.7276 13.7769 12.674 13.9167 12.555 14.0358C12.4479 14.1548 12.311 14.2144 12.1443 14.2144H10.8675C10.7127 14.2144 10.5803 14.1623 10.4702 14.0581C10.3601 13.9539 10.302 13.8275 10.2961 13.6786C10.2246 12.3989 9.92405 11.1831 9.39429 10.0313C8.86453 8.87953 8.17554 7.87953 7.32732 7.03132C6.47911 6.18311 5.47911 5.49412 4.32732 4.96436C3.17554 4.43459 1.95976 4.13102 0.680001 4.05364C0.531192 4.04769 0.404704 3.98965 0.300537 3.87953C0.19637 3.76941 0.144287 3.63995 0.144287 3.49114V2.21435C0.144287 2.04769 0.203811 1.91078 0.322859 1.80364C0.430001 1.6965 0.560954 1.64293 0.715716 1.64293H0.742501C2.30203 1.72031 3.79458 2.07745 5.22018 2.71435C6.64578 3.35126 7.91214 4.22626 9.01929 5.33936C10.1324 6.4465 11.0074 7.71287 11.6443 9.13846C12.2812 10.5641 12.6383 12.0566 12.7157 13.6161Z" fill="#C19B76"/>
</svg>
