<svg width="61" height="68" viewBox="0 0 61 68" fill="none" xmlns="http://www.w3.org/2000/svg">
<path d="M42.3359 52.3242V52.9102C42.4141 53.457 42.5703 54.043 42.8047 54.668C42.8047 54.7461 42.7656 54.8242 42.6875 54.9023C42.1406 55.2148 41.6719 55.5664 41.2812 55.957L40.8125 56.4258C40.7344 56.4258 40.6562 56.4258 40.5781 56.4258C40.5 56.4258 40.4609 56.3867 40.4609 56.3086V55.7227C40.3828 55.0977 40.2266 54.5117 39.9922 53.9648C39.9922 53.8086 40.0312 53.6914 40.1094 53.6133C40.6562 53.3008 41.125 52.9492 41.5156 52.5586L41.9844 52.207C42.0625 52.1289 42.1406 52.1094 42.2188 52.1484C42.2969 52.1875 42.3359 52.2461 42.3359 52.3242ZM8.58594 40.8398C8.42969 39.1992 8.89844 37.793 9.99219 36.6211C10.9297 35.6055 12.1016 35.0195 13.5078 34.8633C13.5078 34.8633 13.5078 34.8242 13.5078 34.7461C13.5078 33.2617 14.0547 31.9727 15.1484 30.8789C16.2422 29.7852 17.5312 29.2383 19.0156 29.2383C20.5781 29.2383 21.8867 29.7656 22.9414 30.8203C23.9961 31.875 24.5625 33.1836 24.6406 34.7461C24.6406 34.7461 24.6406 34.7852 24.6406 34.8633C25.9688 35.0195 27.1016 35.6055 28.0391 36.6211C29.2109 37.793 29.7188 39.1992 29.5625 40.8398C29.4844 42.2461 28.9375 43.4375 27.9219 44.4141C26.9062 45.3906 25.6953 45.918 24.2891 45.9961C23.5859 45.9961 22.9219 45.8789 22.2969 45.6445C22.2969 46.5039 22.4141 47.207 22.6484 47.7539C22.8828 48.2227 22.8633 48.6328 22.5898 48.9844C22.3164 49.3359 21.9453 49.5117 21.4766 49.5117H16.6719C16.2031 49.5117 15.832 49.3359 15.5586 48.9844C15.2852 48.6328 15.2266 48.2227 15.3828 47.7539C15.6172 47.207 15.7734 46.5039 15.8516 45.6445C15.2266 45.8789 14.5625 45.9961 13.8594 45.9961C12.4531 45.918 11.2422 45.3906 10.2266 44.4141C9.21094 43.4375 8.66406 42.2461 8.58594 40.8398ZM14.0938 36.6211C13 36.6211 12.082 37.0117 11.3398 37.793C10.5977 38.5742 10.2656 39.5508 10.3438 40.7227C10.3438 41.3477 10.5195 41.9141 10.8711 42.4219C11.2227 42.9297 11.6719 43.3398 12.2188 43.6523C12.7656 43.9648 13.3516 44.1602 13.9766 44.2383C14.6797 44.2383 15.3828 44.043 16.0859 43.6523C16.3984 43.418 16.7305 43.3984 17.082 43.5938C17.4336 43.7891 17.6094 44.082 17.6094 44.4727C17.6875 45.7227 17.5703 46.8164 17.2578 47.7539H20.8906C20.5781 46.8164 20.4609 45.7227 20.5391 44.4727C20.5391 44.082 20.7148 43.7891 21.0664 43.5938C21.418 43.3984 21.75 43.418 22.0625 43.6523C22.6875 44.043 23.3906 44.2383 24.1719 44.2383C25.1094 44.1602 25.9297 43.7891 26.6328 43.125C27.3359 42.4609 27.7266 41.6602 27.8047 40.7227C27.8828 39.5508 27.5508 38.5742 26.8086 37.793C26.0664 37.0117 25.1484 36.6211 24.0547 36.6211C23.9766 36.6211 23.8984 36.6211 23.8203 36.6211C23.5078 36.6211 23.2539 36.5039 23.0586 36.2695C22.8633 36.0352 22.7656 35.7617 22.7656 35.4492C22.8438 35.2148 22.8828 34.9805 22.8828 34.7461C22.8828 34.3555 22.8047 33.9648 22.6484 33.5742C22.4922 33.1836 22.2969 32.832 22.0625 32.5195C21.8281 32.207 21.5547 31.9336 21.2422 31.6992C20.9297 31.4648 20.5977 31.2891 20.2461 31.1719C19.8945 31.0547 19.4844 30.9961 19.0156 30.9961C18 30.9961 17.1211 31.3672 16.3789 32.1094C15.6367 32.8516 15.2656 33.7305 15.2656 34.7461C15.2656 34.9805 15.3047 35.2148 15.3828 35.4492C15.3828 35.7617 15.2852 36.0352 15.0898 36.2695C14.8945 36.5039 14.6016 36.6211 14.2109 36.6211C14.2109 36.6211 14.1719 36.6211 14.0938 36.6211ZM57.6875 14.1211C58.7812 14.5117 59.582 15.2344 60.0898 16.2891C60.5977 17.3438 60.6562 18.418 60.2656 19.5117L58.2734 24.9023C58.1172 25.293 57.8438 25.4883 57.4531 25.4883C57.375 25.4883 57.2969 25.4883 57.2188 25.4883C56.6719 25.2539 56.4766 24.8633 56.6328 24.3164L58.625 18.9258C58.8594 18.3008 58.8203 17.6758 58.5078 17.0508C58.1953 16.4258 57.7266 15.9961 57.1016 15.7617L30.1484 5.91797C29.5234 5.68359 28.8984 5.72266 28.2734 6.03516C27.6484 6.34766 27.2188 6.81641 26.9844 7.44141L24.4062 14.707H26.0469L26.6328 13.1836C26.8672 12.6367 27.2578 12.4609 27.8047 12.6562C28.3516 12.8516 28.5078 13.2227 28.2734 13.7695L27.9219 14.707H33.4297C34.2109 14.707 34.9141 14.9023 35.5391 15.293C36.1641 15.6836 36.6719 16.2109 37.0625 16.875C37.4531 17.5391 37.6484 18.2227 37.6484 18.9258V23.1445C38.1172 22.7539 38.6641 22.6367 39.2891 22.793C39.9922 23.1055 40.3828 23.6133 40.4609 24.3164L40.6953 26.543C40.9297 28.9648 41.4766 31.3086 42.3359 33.5742C42.6484 34.4336 42.375 35.1367 41.5156 35.6836C40.1875 36.4648 38.8984 37.3633 37.6484 38.3789V53.8477C38.0391 54.082 38.1562 54.4336 38 54.9023C37.9219 55.0586 37.8047 55.2148 37.6484 55.3711V57.3633L41.5156 58.7695C42.1406 59.0039 42.7656 58.9844 43.3906 58.7109C44.0156 58.4375 44.4453 57.9883 44.6797 57.3633L55.2266 28.3008C55.4609 27.7539 55.8516 27.5781 56.3984 27.7734C56.9453 27.9688 57.1016 28.3398 56.8672 28.8867L46.3203 57.9492C45.9297 59.043 45.1875 59.8242 44.0938 60.293C43.5469 60.6055 42.9609 60.7617 42.3359 60.7617C41.8672 60.7617 41.3984 60.6836 40.9297 60.5273L37.6484 59.2383V59.8242C37.6484 60.3711 37.5312 60.918 37.2969 61.4648C37.0625 62.0117 36.75 62.4609 36.3594 62.8125C35.9688 63.1641 35.5195 63.457 35.0117 63.6914C34.5039 63.9258 33.9766 64.043 33.4297 64.043H4.71875C3.54688 64.043 2.55078 63.6328 1.73047 62.8125C0.910156 61.9922 0.5 60.9961 0.5 59.8242V56.6602C0.5 56.1133 0.792969 55.8398 1.37891 55.8398C1.96484 55.8398 2.25781 56.1133 2.25781 56.6602V59.8242C2.25781 60.5273 2.49219 61.1133 2.96094 61.582C3.42969 62.0508 4.01562 62.2852 4.71875 62.2852H33.4297C34.1328 62.2852 34.7188 62.0508 35.1875 61.582C35.6562 61.1133 35.8906 60.5273 35.8906 59.8242V18.9258C35.8906 18.3008 35.6562 17.7344 35.1875 17.2266C34.7188 16.7188 34.1328 16.4648 33.4297 16.4648H4.71875C4.01562 16.4648 3.42969 16.7188 2.96094 17.2266C2.49219 17.7344 2.25781 18.3008 2.25781 18.9258V52.6758C2.25781 53.3008 1.96484 53.6133 1.37891 53.6133C0.792969 53.6133 0.5 53.3008 0.5 52.6758V18.9258C0.5 17.7539 0.910156 16.7578 1.73047 15.9375C2.55078 15.1172 3.54688 14.707 4.71875 14.707H22.5312L25.3438 6.85547C25.7344 5.76172 26.457 4.96094 27.5117 4.45312C28.5664 3.94531 29.6406 3.88672 30.7344 4.27734L57.6875 14.1211ZM37.6484 25.6055V36.1523C38.5859 35.3711 39.6016 34.707 40.6953 34.1602C39.8359 31.7383 39.25 29.2773 38.9375 26.7773L38.7031 24.5508L37.6484 25.6055ZM31.2031 8.49609L31.3203 9.08203C31.3203 9.70703 31.4375 10.293 31.6719 10.8398C31.75 10.9961 31.7109 11.0742 31.5547 11.0742C31.0859 11.3867 30.6172 11.7773 30.1484 12.2461L29.6797 12.5977C29.6797 12.6758 29.6406 12.6953 29.5625 12.6562C29.4844 12.6172 29.4062 12.5586 29.3281 12.4805V11.8945C29.25 11.2695 29.0938 10.6836 28.8594 10.1367C28.8594 10.0586 28.8984 9.98047 28.9766 9.90234C29.5234 9.58984 30.0312 9.19922 30.5 8.73047L30.8516 8.37891C30.9297 8.30078 31.0078 8.28125 31.0859 8.32031C31.1641 8.35938 31.2031 8.41797 31.2031 8.49609ZM43.3906 51.0352L54.4062 20.4492C54.6406 19.9805 54.6406 19.5117 54.4062 19.043C54.1719 18.5742 53.8203 18.2227 53.3516 17.9883L34.1328 11.0742C33.5859 10.8398 33.4297 10.4492 33.6641 9.90234C33.8984 9.35547 34.2891 9.19922 34.8359 9.43359L53.9375 16.3477C54.875 16.7383 55.5586 17.3828 55.9883 18.2812C56.418 19.1797 56.4766 20.0977 56.1641 21.0352L45.0312 51.6211C44.875 52.0117 44.6016 52.207 44.2109 52.207C44.1328 52.207 44.0547 52.168 43.9766 52.0898C43.3516 51.9336 43.1562 51.582 43.3906 51.0352ZM34.25 54.3164C34.25 54.8633 33.957 55.1367 33.3711 55.1367C32.7852 55.1367 32.4922 54.8633 32.4922 54.3164V21.7383C32.4922 21.2695 32.3164 20.8398 31.9648 20.4492C31.6133 20.0586 31.1641 19.8633 30.6172 19.8633H10.2266C9.67969 19.8633 9.40625 19.5703 9.40625 18.9844C9.40625 18.3984 9.67969 18.1055 10.2266 18.1055H30.6172C31.6328 18.1055 32.4922 18.4766 33.1953 19.2188C33.8984 19.9609 34.25 20.8008 34.25 21.7383V54.3164ZM32.7266 58.8867C32.7266 58.9648 32.7266 59.043 32.7266 59.1211C32.7266 59.7461 32.3945 60.0586 31.7305 60.0586C31.0664 60.0586 30.7344 59.7461 30.7344 59.1211C30.7344 59.043 30.7344 58.9648 30.7344 58.8867H30.6172C29.9141 58.8867 29.5625 58.4961 29.5625 57.7148C29.6406 57.168 29.9922 56.8555 30.6172 56.7773C30.8516 56.7773 31.0469 56.8555 31.2031 57.0117V56.8945C31.2031 56.582 31.1641 56.3477 31.0859 56.1914C31.0859 56.1133 31.125 56.0742 31.2031 56.0742H32.2578C32.3359 56.0742 32.375 56.1133 32.375 56.1914C32.2969 56.3477 32.2578 56.582 32.2578 56.8945V57.0117C32.4922 56.8555 32.6875 56.7773 32.8438 56.7773C33.4688 56.8555 33.8203 57.168 33.8984 57.7148C33.8984 58.4961 33.5469 58.8867 32.8438 58.8867H32.7266ZM3.89844 24.5508C3.89844 23.9258 4.19141 23.6133 4.77734 23.6133C5.36328 23.6133 5.65625 23.9258 5.65625 24.5508V57.0117C5.65625 57.5586 5.83203 58.0078 6.18359 58.3594C6.53516 58.7109 6.98438 58.8867 7.53125 58.8867H27.9219C28.4688 58.8867 28.7422 59.1797 28.7422 59.7656C28.7422 60.3516 28.4688 60.6445 27.9219 60.6445H7.53125C6.51562 60.6445 5.65625 60.293 4.95312 59.5898C4.25 58.8867 3.89844 58.0273 3.89844 57.0117V24.5508ZM5.30469 19.9805L5.42188 19.8633C5.42188 19.7852 5.42188 19.7461 5.42188 19.7461C5.42188 19.043 5.75391 18.6914 6.41797 18.6914C7.08203 18.6914 7.41406 19.043 7.41406 19.7461C7.41406 19.7461 7.41406 19.7852 7.41406 19.8633V19.9805C7.41406 19.9023 7.45312 19.8633 7.53125 19.8633C8.23438 19.8633 8.54688 20.2539 8.46875 21.0352C8.46875 21.6602 8.15625 21.9727 7.53125 21.9727C7.29688 21.9727 7.10156 21.9336 6.94531 21.8555C6.86719 22.168 6.90625 22.4414 7.0625 22.6758C7.0625 22.7539 7.02344 22.793 6.94531 22.793H5.89062C5.8125 22.793 5.77344 22.7539 5.77344 22.6758C5.85156 22.4414 5.89062 22.168 5.89062 21.8555C5.65625 21.9336 5.46094 21.9727 5.30469 21.9727C4.67969 21.9727 4.32812 21.6602 4.25 21.0352C4.25 20.2539 4.60156 19.8633 5.30469 19.8633V19.9805Z" fill="black"/>
</svg>
