<svg width="61" height="68" viewBox="0 0 61 68" fill="none" xmlns="http://www.w3.org/2000/svg">
<path d="M55.4609 28.0663C56.8672 28.0663 58.0586 28.5546 59.0352 29.5312C60.0117 30.5078 60.5 31.6601 60.5 32.9882C60.5 35.4882 59.6211 37.6171 57.8633 39.3749C56.1055 41.1328 53.9766 42.0117 51.4766 42.0117H39.5234C37.5703 42.0117 35.7734 41.4257 34.1328 40.2538C29.9922 41.5038 25.7734 42.0898 21.4766 42.0117C15.6172 42.0117 10.6562 41.1523 6.59375 39.4335C2.53125 37.7148 0.5 35.5663 0.5 32.9882C0.5 31.2695 1.53516 29.6874 3.60547 28.2421C5.67578 26.7968 8.42969 25.7226 11.8672 25.0195C9.60156 24.3945 7.80469 23.5546 6.47656 22.4999C5.14844 21.4453 4.48438 20.2929 4.48438 19.0429C4.48438 18.1054 4.83594 17.2265 5.53906 16.4062C6.24219 15.5859 7.23828 14.8828 8.52734 14.2968C9.81641 13.7109 11.3203 13.2226 13.0391 12.832C10.6953 11.8945 9.52344 10.6445 9.52344 9.08197C9.52344 7.51947 10.6367 6.289 12.8633 5.39056C15.0898 4.49213 17.6484 4.04291 20.5391 4.04291C23.4297 4.04291 25.9883 4.49213 28.2148 5.39056C30.4414 6.289 31.5547 7.51947 31.5547 9.08197C31.5547 10.6445 30.3438 11.8945 27.9219 12.832C30.5781 13.3788 32.668 14.1992 34.1914 15.2929C35.7148 16.3867 36.4766 17.6367 36.4766 19.0429C36.4766 21.5429 34.2891 23.457 29.9141 24.7851C33.1953 25.2538 36.2422 26.3476 39.0547 28.0663H44.4453V25.957C43.3516 25.7226 42.4141 25.1367 41.6328 24.1992C40.8516 23.2617 40.4609 22.207 40.4609 21.0351V20.6835C40.4609 19.2773 40.9688 18.1054 41.9844 17.1679L45.5 13.6523L49.0156 17.1679C50.0312 18.1054 50.5391 19.2773 50.5391 20.6835V21.0351C50.5391 21.8163 50.3633 22.5585 50.0117 23.2617C49.6602 23.9648 49.1719 24.5507 48.5469 25.0195C47.9219 25.4882 47.2578 25.8007 46.5547 25.957V28.0663H55.4609ZM42.4531 21.0351C42.4531 21.8945 42.7461 22.6171 43.332 23.2031C43.918 23.789 44.6406 24.082 45.5 24.082C46.3594 24.082 47.082 23.789 47.668 23.2031C48.2539 22.6171 48.5469 21.8945 48.5469 21.0351V20.6835C48.5469 19.9023 48.2344 19.1992 47.6094 18.5742L45.5 16.4648L43.3906 18.5742C42.7656 19.1992 42.4531 19.9023 42.4531 20.6835V21.0351ZM14.0938 7.03119C14.0938 7.03119 13.6641 7.1972 12.8047 7.52924C11.9453 7.86127 11.5156 8.35931 11.5156 9.02338C11.5156 9.68744 12.375 10.3515 14.0938 11.0156C15.8125 11.6796 17.9414 12.0117 20.4805 12.0117C23.0195 12.0117 25.1484 11.6796 26.8672 11.0156C28.5859 10.3515 29.4453 9.68744 29.4453 9.02338C29.4453 8.35931 28.5859 7.69525 26.8672 7.03119C25.1484 6.36713 23.0195 6.0351 20.4805 6.0351C17.9414 6.0351 15.8125 6.36713 14.0938 7.03119ZM10.5195 15.5859C10.5195 15.5859 9.8457 15.8496 8.49805 16.3769C7.15039 16.9042 6.47656 17.7929 6.47656 19.0429C6.47656 20.2929 7.82422 21.4453 10.5195 22.4999C13.2148 23.5546 16.5547 24.082 20.5391 24.082C22.4922 24.082 24.3672 23.9257 26.1641 23.6132C27.9609 23.3007 29.4453 22.9101 30.6172 22.4413C31.7891 21.9726 32.7266 21.4453 33.4297 20.8593C34.1328 20.2734 34.4844 19.6679 34.4844 19.0429C34.4844 17.7929 33.1367 16.6406 30.4414 15.5859C27.7461 14.5312 24.4258 14.0038 20.4805 14.0038C16.5352 14.0038 13.2148 14.5312 10.5195 15.5859ZM21.4766 40.0195C25.2266 40.0976 28.8984 39.6679 32.4922 38.7304C32.4922 38.6523 32.4727 38.6132 32.4336 38.6132C32.3945 38.6132 32.375 38.6132 32.375 38.6132C32.375 38.6132 32.3359 38.5351 32.2578 38.3788C32.1016 38.2226 31.9844 38.0273 31.9062 37.7929C31.8281 37.7148 31.7891 37.6367 31.7891 37.5585C31.6328 37.4023 31.5156 37.207 31.4375 36.9726C31.4375 36.9726 31.3984 36.9335 31.3203 36.8554C31.1641 36.5429 31.0469 36.2695 30.9688 36.0351C30.9688 35.957 30.9688 35.8984 30.9688 35.8593C30.9688 35.8203 30.9688 35.8007 30.9688 35.8007C30.8906 35.5663 30.8125 35.332 30.7344 35.0976C30.7344 35.0195 30.7344 34.9413 30.7344 34.8632C30.6562 34.6288 30.6172 34.3945 30.6172 34.1601C30.5391 34.082 30.5 34.0038 30.5 33.9257C30.5 33.6132 30.5 33.3007 30.5 32.9882C30.5 32.6757 30.5391 32.3632 30.6172 32.0507V31.9335L30.7344 31.8163C30.7344 31.582 30.7734 31.3867 30.8516 31.2304C30.8516 31.1523 30.8906 31.0351 30.9688 30.8788C31.125 30.7226 31.2422 30.5663 31.3203 30.4101C31.3203 30.332 31.3789 30.2148 31.4961 30.0585C31.6133 29.9023 31.75 29.746 31.9062 29.5898C31.9844 29.5117 32.0625 29.4335 32.1406 29.3554C32.2969 29.2773 32.4141 29.1601 32.4922 29.0038C32.6484 28.9257 32.7656 28.8476 32.8438 28.7695C33 28.6913 33.1562 28.6132 33.3125 28.5351C33.4688 28.457 33.5859 28.4179 33.6641 28.4179C33.8203 28.3398 34.0156 28.2617 34.25 28.1835C34.4062 28.1835 34.5234 28.1835 34.6016 28.1835V28.0663H34.7188C30.4219 26.6601 26.0078 25.996 21.4766 26.0742C16.1641 26.0742 11.6719 26.7968 8 28.2421C4.32812 29.6874 2.49219 31.289 2.49219 33.0468C2.49219 34.8046 4.32812 36.4062 8 37.8515C11.6719 39.2968 16.1641 40.0195 21.4766 40.0195ZM51.4766 40.0195C53.4297 40.0195 55.0898 39.3359 56.457 37.9687C57.8242 36.6015 58.5078 34.9413 58.5078 32.9882C58.5078 32.207 58.2148 31.5234 57.6289 30.9374C57.043 30.3515 56.3203 30.0585 55.4609 30.0585H35.5391C34.6797 30.0585 33.957 30.3515 33.3711 30.9374C32.7852 31.5234 32.4922 32.207 32.4922 32.9882C32.4922 34.9413 33.1758 36.6015 34.543 37.9687C35.9102 39.3359 37.5703 40.0195 39.5234 40.0195H51.4766Z" fill="black"/>
</svg>
