<svg width="27" height="29" viewBox="0 0 27 29" fill="none" xmlns="http://www.w3.org/2000/svg">
<path d="M15.4461 16.1161C15.4461 16.1161 15.5577 16.0045 15.7809 15.7813C16.0041 15.5581 16.1157 15.131 16.1157 14.5C16.1157 13.8691 15.8925 13.3304 15.4461 12.884C14.9997 12.4375 14.461 12.2143 13.83 12.2143C13.1991 12.2143 12.6604 12.4375 12.2139 12.884C11.7675 13.3304 11.5443 13.8691 11.5443 14.5C11.5443 15.131 11.7675 15.6697 12.2139 16.1161C12.6604 16.5625 13.1991 16.7857 13.83 16.7857C14.461 16.7857 14.9997 16.5625 15.4461 16.1161ZM16.3211 12.009C16.3211 12.009 16.4922 12.1801 16.8345 12.5224C17.1767 12.8646 17.3479 13.5238 17.3479 14.5C17.3479 15.4762 17.0056 16.3066 16.3211 16.9911C15.6366 17.6756 14.8062 18.0179 13.83 18.0179C12.8538 18.0179 12.0235 17.6756 11.3389 16.9911C10.6544 16.3066 10.3122 15.4762 10.3122 14.5C10.3122 13.5238 10.6544 12.6935 11.3389 12.009C12.0235 11.3244 12.8538 10.9822 13.83 10.9822C14.8062 10.9822 15.6366 11.3244 16.3211 12.009ZM18.0711 10.259C18.0711 10.259 18.1113 10.2991 18.1916 10.3795C18.272 10.4599 18.3122 10.6131 18.3122 10.8393C18.3122 11.0655 18.2318 11.259 18.0711 11.4197C17.9104 11.5804 17.7169 11.6607 17.4907 11.6607C17.2645 11.6607 17.0711 11.5804 16.9104 11.4197C16.7497 11.259 16.6693 11.0655 16.6693 10.8393C16.6693 10.6131 16.7497 10.4197 16.9104 10.259C17.0711 10.0982 17.2645 10.0179 17.4907 10.0179C17.7169 10.0179 17.9104 10.0982 18.0711 10.259ZM14.513 8.87057C14.513 8.87057 14.4096 8.87131 14.2028 8.8728C13.9959 8.87429 13.8717 8.87503 13.83 8.87503C13.7883 8.87503 13.5607 8.87355 13.147 8.87057C12.7333 8.86759 12.4193 8.86759 12.205 8.87057C11.9907 8.87355 11.7035 8.88247 11.3434 8.89736C10.9833 8.91224 10.6767 8.942 10.4238 8.98664C10.1708 9.03128 9.95799 9.08634 9.78537 9.15182C9.48775 9.27087 9.22585 9.44349 8.99966 9.66968C8.77347 9.89587 8.60085 10.1578 8.4818 10.4554C8.41632 10.628 8.36126 10.8408 8.31662 11.0938C8.27198 11.3468 8.24222 11.6533 8.22733 12.0134C8.21245 12.3735 8.20352 12.6607 8.20055 12.875C8.19757 13.0893 8.19757 13.4033 8.20055 13.817C8.20352 14.2307 8.20501 14.4584 8.20501 14.5C8.20501 14.5417 8.20352 14.7694 8.20055 15.1831C8.19757 15.5968 8.19757 15.9107 8.20055 16.125C8.20352 16.3393 8.21245 16.6265 8.22733 16.9866C8.24222 17.3468 8.27198 17.6533 8.31662 17.9063C8.36126 18.1593 8.41632 18.3721 8.4818 18.5447C8.60085 18.8423 8.77347 19.1042 8.99966 19.3304C9.22585 19.5566 9.48775 19.7292 9.78537 19.8482C9.95799 19.9137 10.1708 19.9688 10.4238 20.0134C10.6767 20.0581 10.9833 20.0878 11.3434 20.1027C11.7035 20.1176 11.9907 20.1265 12.205 20.1295C12.4193 20.1325 12.7333 20.1325 13.147 20.1295C13.5607 20.1265 13.7883 20.125 13.83 20.125C13.8717 20.125 14.0994 20.1265 14.513 20.1295C14.9267 20.1325 15.2407 20.1325 15.455 20.1295C15.6693 20.1265 15.9565 20.1176 16.3166 20.1027C16.6767 20.0878 16.9833 20.0581 17.2363 20.0134C17.4892 19.9688 17.702 19.9137 17.8747 19.8482C18.1723 19.7292 18.4342 19.5566 18.6604 19.3304C18.8866 19.1042 19.0592 18.8423 19.1782 18.5447C19.2437 18.3721 19.2988 18.1593 19.3434 17.9063C19.388 17.6533 19.4178 17.3468 19.4327 16.9866C19.4476 16.6265 19.4565 16.3393 19.4595 16.125C19.4625 15.9107 19.4625 15.5968 19.4595 15.1831C19.4565 14.7694 19.455 14.5417 19.455 14.5C19.455 14.4584 19.4565 14.2307 19.4595 13.817C19.4625 13.4033 19.4625 13.0893 19.4595 12.875C19.4565 12.6607 19.4476 12.3735 19.4327 12.0134C19.4178 11.6533 19.388 11.3468 19.3434 11.0938C19.2988 10.8408 19.2437 10.628 19.1782 10.4554C19.0592 10.1578 18.8866 9.89587 18.6604 9.66968C18.4342 9.44349 18.1723 9.27087 17.8747 9.15182C17.702 9.08634 17.4892 9.03128 17.2363 8.98664C16.9833 8.942 16.6767 8.91224 16.3166 8.89736C15.9565 8.88247 15.6693 8.87355 15.455 8.87057C15.2407 8.86759 14.9267 8.86759 14.513 8.87057ZM20.6425 11.6697C20.6723 12.1935 20.6872 13.1369 20.6872 14.5C20.6872 15.8631 20.6723 16.8066 20.6425 17.3304C20.583 18.5685 20.2139 19.5268 19.5354 20.2054C18.8568 20.884 17.8985 21.253 16.6604 21.3125C16.1366 21.3423 15.1931 21.3572 13.83 21.3572C12.4669 21.3572 11.5235 21.3423 10.9997 21.3125C9.76156 21.253 8.80323 20.884 8.12466 20.2054C7.44608 19.5268 7.07704 18.5685 7.01751 17.3304C6.98775 16.8066 6.97287 15.8631 6.97287 14.5C6.97287 13.1369 6.98775 12.1935 7.01751 11.6697C7.07704 10.4316 7.44608 9.47325 8.12466 8.79468C8.80323 8.11611 9.76156 7.74706 10.9997 7.68753C11.5235 7.65777 12.4669 7.64289 13.83 7.64289C15.1931 7.64289 16.1366 7.65777 16.6604 7.68753C17.8985 7.74706 18.8568 8.11611 19.5354 8.79468C20.2139 9.47325 20.583 10.4316 20.6425 11.6697Z" fill="#C19B76"/>
</svg>
