<svg width="33" height="29" viewBox="0 0 33 29" fill="none" xmlns="http://www.w3.org/2000/svg">
<path d="M19.2384 14.6557C19.2384 15.8932 18.9796 16.9953 18.462 17.9621C17.9444 18.9289 17.2066 19.6845 16.2488 20.2288C15.2909 20.7732 14.1932 21.0454 12.9557 21.0454C12.0693 21.0454 11.2215 20.8729 10.4123 20.5278C9.6032 20.1827 8.90711 19.7187 8.32406 19.1356C7.74101 18.5526 7.27695 17.8565 6.93188 17.0474C6.58681 16.2382 6.41428 15.3904 6.41428 14.5039C6.41428 13.6175 6.58681 12.7697 6.93188 11.9605C7.27695 11.1514 7.74101 10.4553 8.32406 9.87227C8.90711 9.28922 9.6032 8.82516 10.4123 8.48009C11.2215 8.13502 12.0693 7.96249 12.9557 7.96249C14.6573 7.96249 16.1179 8.53364 17.3375 9.67594L15.5616 11.3805C14.8655 10.7082 13.9969 10.372 12.9557 10.372C12.224 10.372 11.5472 10.5565 10.9255 10.9253C10.3038 11.2942 9.81143 11.7954 9.44852 12.4291C9.0856 13.0627 8.90414 13.7543 8.90414 14.5039C8.90414 15.2536 9.0856 15.9452 9.44852 16.5788C9.81143 17.2125 10.3038 17.7137 10.9255 18.0826C11.5472 18.4514 12.224 18.6359 12.9557 18.6359C13.4495 18.6359 13.9032 18.5674 14.3167 18.4306C14.7302 18.2938 15.0708 18.1227 15.3385 17.9175C15.6062 17.7122 15.8398 17.4787 16.0391 17.2169C16.2384 16.9551 16.3841 16.7082 16.4763 16.4762C16.5686 16.2442 16.6325 16.024 16.6682 15.8158H12.9557V13.5669H19.1313C19.2027 13.9417 19.2384 14.3046 19.2384 14.6557ZM26.9757 13.5669V15.441H25.1105V17.3062H23.2365V15.441H21.3713V13.5669H23.2365V11.7017H25.1105V13.5669H26.9757Z" fill="#C19B76"/>
</svg>
