<svg width="15" height="14" viewBox="0 0 15 14" fill="none" xmlns="http://www.w3.org/2000/svg">
<path d="M3.81895 5.08025V13.9285H0.872524V5.08025H3.81895ZM4.00645 2.34811C4.0124 2.78263 3.86211 3.14573 3.55556 3.4374C3.24901 3.72906 2.84574 3.8749 2.34574 3.8749H2.32788C1.83979 3.8749 1.44693 3.72906 1.14931 3.4374C0.85169 3.14573 0.702881 2.78263 0.702881 2.34811C0.702881 1.90763 0.856155 1.54305 1.1627 1.25436C1.46925 0.965669 1.86955 0.821323 2.3636 0.821323C2.85764 0.821323 3.25348 0.965669 3.5511 1.25436C3.84871 1.54305 4.0005 1.90763 4.00645 2.34811ZM14.4172 8.85704V13.9285H11.4797V9.19632C11.4797 8.57132 11.3591 8.08174 11.1181 7.72757C10.877 7.37341 10.5005 7.19632 9.9886 7.19632C9.6136 7.19632 9.29961 7.299 9.04663 7.50436C8.79366 7.70972 8.60467 7.96418 8.47967 8.26775C8.41419 8.44632 8.38145 8.6874 8.38145 8.99097V13.9285H5.44395C5.45586 11.5535 5.46181 9.62787 5.46181 8.15168C5.46181 6.67549 5.45883 5.79454 5.45288 5.50882L5.44395 5.08025H8.38145V6.36597H8.3636C8.48264 6.17549 8.60467 6.00882 8.72967 5.86597C8.85467 5.72311 9.02282 5.56835 9.23413 5.40168C9.44544 5.23501 9.70437 5.10555 10.0109 5.01329C10.3175 4.92103 10.6582 4.8749 11.0332 4.8749C12.0511 4.8749 12.8695 5.21269 13.4886 5.88829C14.1076 6.56388 14.4172 7.55347 14.4172 8.85704Z" fill="#C19B76"/>
</svg>
